{"accessors":[{"bufferView":0,"byteOffset":0,"componentType":5126,"count":4,"max":[0.0,0.06,0.002],"min":[0.0,0.0,0.0],"type":"VEC3"},{"bufferView":0,"byteOffset":48,"componentType":5126,"count":4,"max":[0.1,0.0,0.002],"min":[0.0,0.0,0.0],"type":"VEC3"},{"bufferView":0,"byteOffset":96,"componentType":5126,"count":508,"max":[0.1,0.06,0.002],"min":[0.0,0.0,0.0019999999999999996],"type":"VEC3"},{"bufferView":0,"byteOffset":6192,"componentType":5126,"count":4,"max":[0.1,0.06,0.002],"min":[0.0,0.06,0.0],"type":"VEC3"},{"bufferView":0,"byteOffset":6240,"componentType":5126,"count":508,"max":[0.1,0.06,2.220446049250313e-19],"min":[0.0,0.0,0.0],"type":"VEC3"},{"bufferView":0,"byteOffset":12336,"componentType":5126,"count":4,"max":[0.1,0.06,0.002],"min":[0.1,0.0,0.0],"type":"VEC3"},{"bufferView":0,"byteOffset":12384,"componentType":5126,"count":254,"max":[0.0116,0.011599502691201306,0.002],"min":[0.008400000000000001,0.008400497308798693,0.0],"type":"VEC3"},{"bufferView":0,"byteOffset":15432,"componentType":5126,"count":254,"max":[0.0916,0.011599502691201306,0.002],"min":[0.0884,0.008400497308798693,0.0],"type":"VEC3"},{"bufferView":0,"byteOffset":18480,"componentType":5126,"count":254,"max":[0.0116,0.05159950269120131,0.002],"min":[0.008400000000000001,0.048400497308798696,0.0],"type":"VEC3"},{"bufferView":0,"byteOffset":21528,"componentType":5126,"count":254,"max":[0.0916,0.05159950269120131,0.002],"min":[0.0884,0.048400497308798696,0.0],"type":"VEC3"},{"bufferView":1,"byteOffset":0,"componentType":5126,"count":4,"type":"VEC3"},{"bufferView":1,"byteOffset":48,"componentType":5126,"count":4,"type":"VEC3"},{"bufferView":1,"byteOffset":96,"componentType":5126,"count":508,"type":"VEC3"},{"bufferView":1,"byteOffset":6192,"componentType":5126,"count":4,"type":"VEC3"},{"bufferView":1,"byteOffset":6240,"componentType":5126,"count":508,"type":"VEC3"},{"bufferView":1,"byteOffset":12336,"componentType":5126,"count":4,"type":"VEC3"},{"bufferView":1,"byteOffset":12384,"componentType":5126,"count":254,"type":"VEC3"},{"bufferView":1,"byteOffset":15432,"componentType":5126,"count":254,"type":"VEC3"},{"bufferView":1,"byteOffset":18480,"componentType":5126,"count":254,"type":"VEC3"},{"bufferView":1,"byteOffset":21528,"componentType":5126,"count":254,"type":"VEC3"},{"bufferView":2,"byteOffset":0,"componentType":5123,"count":6,"type":"SCALAR"},{"bufferView":2,"byteOffset":12,"componentType":5123,"count":6,"type":"SCALAR"},{"bufferView":2,"byteOffset":24,"componentType":5123,"count":1542,"type":"SCALAR"},{"bufferView":2,"byteOffset":3108,"componentType":5123,"count":6,"type":"SCALAR"},{"bufferView":2,"byteOffset":3120,"componentType":5123,"count":1542,"type":"SCALAR"},{"bufferView":2,"byteOffset":6204,"componentType":5123,"count":6,"type":"SCALAR"},{"bufferView":2,"byteOffset":6216,"componentType":5123,"count":756,"type":"SCALAR"},{"bufferView":2,"byteOffset":7728,"componentType":5123,"count":756,"type":"SCALAR"},{"bufferView":2,"byteOffset":9240,"componentType":5123,"count":756,"type":"SCALAR"},{"bufferView":2,"byteOffset":10752,"componentType":5123,"count":756,"type":"SCALAR"}],"asset":{"generator":"Open CASCADE Technology 7.8 [dev.opencascade.org]","version":"2.0"},"bufferViews":[{"buffer":0,"byteLength":24576,"byteOffset":0,"byteStride":12,"target":34962},{"buffer":0,"byteLength":24576,"byteOffset":24576,"byteStride":12,"target":34962},{"buffer":0,"byteLength":12264,"byteOffset":49152,"target":34963}],"buffers":[{"byteLength":61416,"uri":"front_base.bin"}],"meshes":[{"name":"COMPOUND","primitives":[{"attributes":{"NORMAL":10,"POSITION":0},"indices":20,"mode":4},{"attributes":{"NORMAL":11,"POSITION":1},"indices":21,"mode":4},{"attributes":{"NORMAL":12,"POSITION":2},"indices":22,"mode":4},{"attributes":{"NORMAL":13,"POSITION":3},"indices":23,"mode":4},{"attributes":{"NORMAL":14,"POSITION":4},"indices":24,"mode":4},{"attributes":{"NORMAL":15,"POSITION":5},"indices":25,"mode":4},{"attributes":{"NORMAL":16,"POSITION":6},"indices":26,"mode":4},{"attributes":{"NORMAL":17,"POSITION":7},"indices":27,"mode":4},{"attributes":{"NORMAL":18,"POSITION":8},"indices":28,"mode":4},{"attributes":{"NORMAL":19,"POSITION":9},"indices":29,"mode":4}]}],"nodes":[{"rotation":[-0.7071067811865475,0.0,0.0,0.7071067811865475],"mesh":0,"name":"=>[0:1:1:2]"}],"scene":0,"scenes":[{"nodes":[0]}]}