{"accessors":[{"bufferView":0,"byteOffset":0,"componentType":5126,"count":130,"max":[3.3306690738754697e-19,0.02,0.02],"min":[-3.3306690738754697e-19,0.0,0.0],"type":"VEC3"},{"bufferView":0,"byteOffset":1560,"componentType":5126,"count":130,"max":[0.02,3.3296338419779854e-19,0.02],"min":[0.0,-3.3296338419779845e-19,0.0],"type":"VEC3"},{"bufferView":0,"byteOffset":3120,"componentType":5126,"count":130,"max":[0.02,0.02,0.02],"min":[0.0,0.0,0.02],"type":"VEC3"},{"bufferView":0,"byteOffset":4680,"componentType":5126,"count":130,"max":[0.02,0.02,0.0],"min":[0.0,0.0,0.0],"type":"VEC3"},{"bufferView":0,"byteOffset":6240,"componentType":5126,"count":130,"max":[0.02,0.02,0.02],"min":[0.0,0.02,0.0],"type":"VEC3"},{"bufferView":0,"byteOffset":7800,"componentType":5126,"count":254,"max":[0.0030000000000000005,0.011499533773001225,0.0115],"min":[-3.3306690738754697e-19,0.008500466226998776,0.0085],"type":"VEC3"},{"bufferView":0,"byteOffset":10848,"componentType":5126,"count":130,"max":[0.02,0.02,0.02],"min":[0.02,0.0,0.0],"type":"VEC3"},{"bufferView":0,"byteOffset":12408,"componentType":5126,"count":254,"max":[0.0115,0.0030000000000000005,0.011499533773001225],"min":[0.0085,-3.3296338419779864e-19,0.008500466226998776],"type":"VEC3"},{"bufferView":0,"byteOffset":15456,"componentType":5126,"count":254,"max":[0.0115,0.011499533773001225,0.02],"min":[0.0085,0.008500466226998776,0.017],"type":"VEC3"},{"bufferView":0,"byteOffset":18504,"componentType":5126,"count":254,"max":[0.0115,0.011499533773001225,0.003],"min":[0.0085,0.008500466226998776,0.0],"type":"VEC3"},{"bufferView":0,"byteOffset":21552,"componentType":5126,"count":254,"max":[0.0115,0.02,0.011499533773001225],"min":[0.0085,0.017,0.008500466226998776],"type":"VEC3"},{"bufferView":0,"byteOffset":24600,"componentType":5126,"count":126,"max":[0.0030000000000000005,0.011499533773001225,0.0115],"min":[0.0029999999999999996,0.008500466226998776,0.0085],"type":"VEC3"},{"bufferView":0,"byteOffset":26112,"componentType":5126,"count":254,"max":[0.02,0.011499533773001225,0.0115],"min":[0.017,0.008500466226998776,0.0085],"type":"VEC3"},{"bufferView":0,"byteOffset":29160,"componentType":5126,"count":126,"max":[0.0115,0.0030000000000000005,0.011499533773001223],"min":[0.0085,0.0029999999999999996,0.008500466226998776],"type":"VEC3"},{"bufferView":0,"byteOffset":30672,"componentType":5126,"count":126,"max":[0.0115,0.011499533773001225,0.017],"min":[0.0085,0.008500466226998776,0.017],"type":"VEC3"},{"bufferView":0,"byteOffset":32184,"componentType":5126,"count":126,"max":[0.0115,0.011499533773001225,0.003],"min":[0.0085,0.008500466226998776,0.003],"type":"VEC3"},{"bufferView":0,"byteOffset":33696,"componentType":5126,"count":126,"max":[0.0115,0.017,0.011499533773001225],"min":[0.0085,0.017,0.008500466226998777],"type":"VEC3"},{"bufferView":0,"byteOffset":35208,"componentType":5126,"count":126,"max":[0.017,0.011499533773001225,0.0115],"min":[0.017,0.008500466226998776,0.0085],"type":"VEC3"},{"bufferView":1,"byteOffset":0,"componentType":5126,"count":130,"type":"VEC3"},{"bufferView":1,"byteOffset":1560,"componentType":5126,"count":130,"type":"VEC3"},{"bufferView":1,"byteOffset":3120,"componentType":5126,"count":130,"type":"VEC3"},{"bufferView":1,"byteOffset":4680,"componentType":5126,"count":130,"type":"VEC3"},{"bufferView":1,"byteOffset":6240,"componentType":5126,"count":130,"type":"VEC3"},{"bufferView":1,"byteOffset":7800,"componentType":5126,"count":254,"type":"VEC3"},{"bufferView":1,"byteOffset":10848,"componentType":5126,"count":130,"type":"VEC3"},{"bufferView":1,"byteOffset":12408,"componentType":5126,"count":254,"type":"VEC3"},{"bufferView":1,"byteOffset":15456,"componentType":5126,"count":254,"type":"VEC3"},{"bufferView":1,"byteOffset":18504,"componentType":5126,"count":254,"type":"VEC3"},{"bufferView":1,"byteOffset":21552,"componentType":5126,"count":254,"type":"VEC3"},{"bufferView":1,"byteOffset":24600,"componentType":5126,"count":126,"type":"VEC3"},{"bufferView":1,"byteOffset":26112,"componentType":5126,"count":254,"type":"VEC3"},{"bufferView":1,"byteOffset":29160,"componentType":5126,"count":126,"type":"VEC3"},{"bufferView":1,"byteOffset":30672,"componentType":5126,"count":126,"type":"VEC3"},{"bufferView":1,"byteOffset":32184,"componentType":5126,"count":126,"type":"VEC3"},{"bufferView":1,"byteOffset":33696,"componentType":5126,"count":126,"type":"VEC3"},{"bufferView":1,"byteOffset":35208,"componentType":5126,"count":126,"type":"VEC3"},{"bufferView":2,"byteOffset":0,"componentType":5123,"count":390,"type":"SCALAR"},{"bufferView":2,"byteOffset":780,"componentType":5123,"count":390,"type":"SCALAR"},{"bufferView":2,"byteOffset":1560,"componentType":5123,"count":390,"type":"SCALAR"},{"bufferView":2,"byteOffset":2340,"componentType":5123,"count":390,"type":"SCALAR"},{"bufferView":2,"byteOffset":3120,"componentType":5123,"count":390,"type":"SCALAR"},{"bufferView":2,"byteOffset":3900,"componentType":5123,"count":756,"type":"SCALAR"},{"bufferView":2,"byteOffset":5412,"componentType":5123,"count":390,"type":"SCALAR"},{"bufferView":2,"byteOffset":6192,"componentType":5123,"count":756,"type":"SCALAR"},{"bufferView":2,"byteOffset":7704,"componentType":5123,"count":756,"type":"SCALAR"},{"bufferView":2,"byteOffset":9216,"componentType":5123,"count":756,"type":"SCALAR"},{"bufferView":2,"byteOffset":10728,"componentType":5123,"count":756,"type":"SCALAR"},{"bufferView":2,"byteOffset":12240,"componentType":5123,"count":372,"type":"SCALAR"},{"bufferView":2,"byteOffset":12984,"componentType":5123,"count":756,"type":"SCALAR"},{"bufferView":2,"byteOffset":14496,"componentType":5123,"count":372,"type":"SCALAR"},{"bufferView":2,"byteOffset":15240,"componentType":5123,"count":372,"type":"SCALAR"},{"bufferView":2,"byteOffset":15984,"componentType":5123,"count":372,"type":"SCALAR"},{"bufferView":2,"byteOffset":16728,"componentType":5123,"count":372,"type":"SCALAR"},{"bufferView":2,"byteOffset":17472,"componentType":5123,"count":372,"type":"SCALAR"}],"asset":{"generator":"Open CASCADE Technology 7.8 [dev.opencascade.org]","version":"2.0"},"bufferViews":[{"buffer":0,"byteLength":36720,"byteOffset":0,"byteStride":12,"target":34962},{"buffer":0,"byteLength":36720,"byteOffset":36720,"byteStride":12,"target":34962},{"buffer":0,"byteLength":18216,"byteOffset":73440,"target":34963}],"buffers":[{"byteLength":91656,"uri":"connect.bin"}],"meshes":[{"name":"COMPOUND","primitives":[{"attributes":{"NORMAL":18,"POSITION":0},"indices":36,"mode":4},{"attributes":{"NORMAL":19,"POSITION":1},"indices":37,"mode":4},{"attributes":{"NORMAL":20,"POSITION":2},"indices":38,"mode":4},{"attributes":{"NORMAL":21,"POSITION":3},"indices":39,"mode":4},{"attributes":{"NORMAL":22,"POSITION":4},"indices":40,"mode":4},{"attributes":{"NORMAL":23,"POSITION":5},"indices":41,"mode":4},{"attributes":{"NORMAL":24,"POSITION":6},"indices":42,"mode":4},{"attributes":{"NORMAL":25,"POSITION":7},"indices":43,"mode":4},{"attributes":{"NORMAL":26,"POSITION":8},"indices":44,"mode":4},{"attributes":{"NORMAL":27,"POSITION":9},"indices":45,"mode":4},{"attributes":{"NORMAL":28,"POSITION":10},"indices":46,"mode":4},{"attributes":{"NORMAL":29,"POSITION":11},"indices":47,"mode":4},{"attributes":{"NORMAL":30,"POSITION":12},"indices":48,"mode":4},{"attributes":{"NORMAL":31,"POSITION":13},"indices":49,"mode":4},{"attributes":{"NORMAL":32,"POSITION":14},"indices":50,"mode":4},{"attributes":{"NORMAL":33,"POSITION":15},"indices":51,"mode":4},{"attributes":{"NORMAL":34,"POSITION":16},"indices":52,"mode":4},{"attributes":{"NORMAL":35,"POSITION":17},"indices":53,"mode":4}]}],"nodes":[{"rotation":[-0.7071067811865475,0.0,0.0,0.7071067811865475],"mesh":0,"name":"=>[0:1:1:2]"}],"scene":0,"scenes":[{"nodes":[0]}]}