solid 
 facet normal -1.000000e+00 -1.689224e-18  7.060755e-18
   outer loop
     vertex -1.110223e-16  1.414214e+00  1.414214e+00
     vertex -1.110223e-16  1.985858e+02  4.858579e+01
     vertex -4.440892e-16  1.985858e+02  1.414214e+00
   endloop
 endfacet
 facet normal -1.000000e+00 -1.689224e-18  7.060755e-18
   outer loop
     vertex  2.220446e-16  1.414214e+00  4.858579e+01
     vertex -1.110223e-16  1.985858e+02  4.858579e+01
     vertex -1.110223e-16  1.414214e+00  1.414214e+00
   endloop
 endfacet
 facet normal -7.071068e-01 -7.071068e-01  2.512148e-15
   outer loop
     vertex  1.414214e+00 -4.440892e-16  4.858579e+01
     vertex  7.071068e-01  7.071068e-01  4.929289e+01
     vertex  2.220446e-16  1.414214e+00  4.858579e+01
   endloop
 endfacet
 facet normal -7.071068e-01 -7.071068e-01  4.992708e-18
   outer loop
     vertex -1.110223e-16  1.414214e+00  1.414214e+00
     vertex  1.414214e+00 -4.440892e-16  4.858579e+01
     vertex  2.220446e-16  1.414214e+00  4.858579e+01
   endloop
 endfacet
 facet normal -7.071068e-01 -7.071068e-01  3.140185e-16
   outer loop
     vertex  1.414214e+00 -1.110223e-16  1.414214e+00
     vertex -1.110223e-16  1.414214e+00  1.414214e+00
     vertex  7.071068e-01  7.071068e-01  7.071068e-01
   endloop
 endfacet
 facet normal -7.071068e-01 -7.071068e-01 -4.992708e-18
   outer loop
     vertex  1.414214e+00 -1.110223e-16  1.414214e+00
     vertex  1.414214e+00 -4.440892e-16  4.858579e+01
     vertex -1.110223e-16  1.414214e+00  1.414214e+00
   endloop
 endfacet
 facet normal -7.071068e-01 -2.056821e-14  7.071068e-01
   outer loop
     vertex  1.414214e+00  1.985858e+02  5.000000e+01
     vertex  7.071068e-01  1.992929e+02  4.929289e+01
     vertex -1.110223e-16  1.985858e+02  4.858579e+01
   endloop
 endfacet
 facet normal -7.071068e-01  1.829158e-14  7.071068e-01
   outer loop
     vertex  1.414214e+00  1.414214e+00  5.000000e+01
     vertex  2.220446e-16  1.414214e+00  4.858579e+01
     vertex  7.071068e-01  7.071068e-01  4.929289e+01
   endloop
 endfacet
 facet normal -7.071068e-01  1.520301e-16  7.071068e-01
   outer loop
     vertex  1.414214e+00  1.414214e+00  5.000000e+01
     vertex -1.110223e-16  1.985858e+02  4.858579e+01
     vertex  2.220446e-16  1.414214e+00  4.858579e+01
   endloop
 endfacet
 facet normal -7.071068e-01  1.576689e-16  7.071068e-01
   outer loop
     vertex  1.414214e+00  1.414214e+00  5.000000e+01
     vertex  1.414214e+00  1.985858e+02  5.000000e+01
     vertex -1.110223e-16  1.985858e+02  4.858579e+01
   endloop
 endfacet
 facet normal -7.071068e-01  7.071068e-01 -6.947659e-14
   outer loop
     vertex -1.110223e-16  1.985858e+02  4.858579e+01
     vertex  7.071068e-01  1.992929e+02  4.929289e+01
     vertex  1.414214e+00  2.000000e+02  4.858579e+01
   endloop
 endfacet
 facet normal -7.071068e-01  7.071068e-01  0.000000e+00
   outer loop
     vertex  1.414214e+00  2.000000e+02  1.414214e+00
     vertex -1.110223e-16  1.985858e+02  4.858579e+01
     vertex  1.414214e+00  2.000000e+02  4.858579e+01
   endloop
 endfacet
 facet normal -7.071068e-01  7.071068e-01  3.375699e-14
   outer loop
     vertex -4.440892e-16  1.985858e+02  1.414214e+00
     vertex  1.414214e+00  2.000000e+02  1.414214e+00
     vertex  7.071068e-01  1.992929e+02  7.071068e-01
   endloop
 endfacet
 facet normal -7.071068e-01  7.071068e-01  4.992708e-18
   outer loop
     vertex -4.440892e-16  1.985858e+02  1.414214e+00
     vertex -1.110223e-16  1.985858e+02  4.858579e+01
     vertex  1.414214e+00  2.000000e+02  1.414214e+00
   endloop
 endfacet
 facet normal -7.071068e-01  5.809342e-15 -7.071068e-01
   outer loop
     vertex -4.440892e-16  1.985858e+02  1.414214e+00
     vertex  7.071068e-01  1.992929e+02  7.071068e-01
     vertex  1.414214e+00  1.985858e+02  2.220446e-16
   endloop
 endfacet
 facet normal -7.071068e-01 -6.280370e-16 -7.071068e-01
   outer loop
     vertex -1.110223e-16  1.414214e+00  1.414214e+00
     vertex  1.414214e+00  1.414214e+00 -1.110223e-16
     vertex  7.071068e-01  7.071068e-01  7.071068e-01
   endloop
 endfacet
 facet normal -7.071068e-01 -1.570978e-16 -7.071068e-01
   outer loop
     vertex -1.110223e-16  1.414214e+00  1.414214e+00
     vertex  1.414214e+00  1.985858e+02  2.220446e-16
     vertex  1.414214e+00  1.414214e+00 -1.110223e-16
   endloop
 endfacet
 facet normal -7.071068e-01 -1.588634e-16 -7.071068e-01
   outer loop
     vertex -1.110223e-16  1.414214e+00  1.414214e+00
     vertex -4.440892e-16  1.985858e+02  1.414214e+00
     vertex  1.414214e+00  1.985858e+02  2.220446e-16
   endloop
 endfacet
 facet normal -7.850462e-16 -7.071068e-01  7.071068e-01
   outer loop
     vertex  9.858579e+01 -1.110223e-16  4.858579e+01
     vertex  9.929289e+01  7.071068e-01  4.929289e+01
     vertex  9.858579e+01  1.414214e+00  5.000000e+01
   endloop
 endfacet
 facet normal  1.570092e-15 -7.071068e-01  7.071068e-01
   outer loop
     vertex  1.414214e+00 -4.440892e-16  4.858579e+01
     vertex  1.414214e+00  1.414214e+00  5.000000e+01
     vertex  7.071068e-01  7.071068e-01  4.929289e+01
   endloop
 endfacet
 facet normal -1.576704e-16 -7.071068e-01  7.071068e-01
   outer loop
     vertex  1.414214e+00 -4.440892e-16  4.858579e+01
     vertex  9.858579e+01  1.414214e+00  5.000000e+01
     vertex  1.414214e+00  1.414214e+00  5.000000e+01
   endloop
 endfacet
 facet normal -1.526925e-16 -7.071068e-01  7.071068e-01
   outer loop
     vertex  1.414214e+00 -4.440892e-16  4.858579e+01
     vertex  9.858579e+01 -1.110223e-16  4.858579e+01
     vertex  9.858579e+01  1.414214e+00  5.000000e+01
   endloop
 endfacet
 facet normal  0.000000e+00 -7.071068e-01 -7.071068e-01
   outer loop
     vertex  9.858579e+01  1.414214e+00 -4.440892e-16
     vertex  9.929289e+01  7.071068e-01  7.071068e-01
     vertex  9.858579e+01  2.220446e-16  1.414214e+00
   endloop
 endfacet
 facet normal  4.710277e-16 -7.071068e-01 -7.071068e-01
   outer loop
     vertex  1.414214e+00  1.414214e+00 -1.110223e-16
     vertex  1.414214e+00 -1.110223e-16  1.414214e+00
     vertex  7.071068e-01  7.071068e-01  7.071068e-01
   endloop
 endfacet
 facet normal  1.599554e-16 -7.071068e-01 -7.071068e-01
   outer loop
     vertex  1.414214e+00  1.414214e+00 -1.110223e-16
     vertex  9.858579e+01  2.220446e-16  1.414214e+00
     vertex  1.414214e+00 -1.110223e-16  1.414214e+00
   endloop
 endfacet
 facet normal  1.559241e-16 -7.071068e-01 -7.071068e-01
   outer loop
     vertex  1.414214e+00  1.414214e+00 -1.110223e-16
     vertex  9.858579e+01  1.414214e+00 -4.440892e-16
     vertex  9.858579e+01  2.220446e-16  1.414214e+00
   endloop
 endfacet
 facet normal  3.427617e-18 -1.000000e+00 -7.060755e-18
   outer loop
     vertex  9.858579e+01  2.220446e-16  1.414214e+00
     vertex  1.414214e+00 -4.440892e-16  4.858579e+01
     vertex  1.414214e+00 -1.110223e-16  1.414214e+00
   endloop
 endfacet
 facet normal  3.427617e-18 -1.000000e+00 -7.060755e-18
   outer loop
     vertex  9.858579e+01 -1.110223e-16  4.858579e+01
     vertex  1.414214e+00 -4.440892e-16  4.858579e+01
     vertex  9.858579e+01  2.220446e-16  1.414214e+00
   endloop
 endfacet
 facet normal  0.000000e+00  0.000000e+00  1.000000e+00
   outer loop
     vertex  9.858579e+01  1.985858e+02  5.000000e+01
     vertex  1.414214e+00  1.985858e+02  5.000000e+01
     vertex  1.414214e+00  1.414214e+00  5.000000e+01
   endloop
 endfacet
 facet normal  0.000000e+00  0.000000e+00  1.000000e+00
   outer loop
     vertex  9.858579e+01  1.985858e+02  5.000000e+01
     vertex  1.414214e+00  1.414214e+00  5.000000e+01
     vertex  9.858579e+01  1.414214e+00  5.000000e+01
   endloop
 endfacet
 facet normal  7.222425e-15  7.071068e-01  7.071068e-01
   outer loop
     vertex  9.858579e+01  1.985858e+02  5.000000e+01
     vertex  9.929289e+01  1.992929e+02  4.929289e+01
     vertex  9.858579e+01  2.000000e+02  4.858579e+01
   endloop
 endfacet
 facet normal -1.551162e-16  7.071068e-01  7.071068e-01
   outer loop
     vertex  1.414214e+00  2.000000e+02  4.858579e+01
     vertex  9.858579e+01  1.985858e+02  5.000000e+01
     vertex  9.858579e+01  2.000000e+02  4.858579e+01
   endloop
 endfacet
 facet normal  1.774204e-14  7.071068e-01  7.071068e-01
   outer loop
     vertex  1.414214e+00  1.985858e+02  5.000000e+01
     vertex  1.414214e+00  2.000000e+02  4.858579e+01
     vertex  7.071068e-01  1.992929e+02  4.929289e+01
   endloop
 endfacet
 facet normal -2.068216e-16  7.071068e-01  7.071068e-01
   outer loop
     vertex  1.414214e+00  1.985858e+02  5.000000e+01
     vertex  9.858579e+01  1.985858e+02  5.000000e+01
     vertex  1.414214e+00  2.000000e+02  4.858579e+01
   endloop
 endfacet
 facet normal  0.000000e+00  1.000000e+00  0.000000e+00
   outer loop
     vertex  9.858579e+01  2.000000e+02  1.414214e+00
     vertex  1.414214e+00  2.000000e+02  1.414214e+00
     vertex  1.414214e+00  2.000000e+02  4.858579e+01
   endloop
 endfacet
 facet normal  0.000000e+00  1.000000e+00  0.000000e+00
   outer loop
     vertex  9.858579e+01  2.000000e+02  4.858579e+01
     vertex  9.858579e+01  2.000000e+02  1.414214e+00
     vertex  1.414214e+00  2.000000e+02  4.858579e+01
   endloop
 endfacet
 facet normal  2.983176e-15  7.071068e-01 -7.071068e-01
   outer loop
     vertex  9.858579e+01  2.000000e+02  1.414214e+00
     vertex  9.929289e+01  1.992929e+02  7.071068e-01
     vertex  9.858579e+01  1.985858e+02 -1.110223e-16
   endloop
 endfacet
 facet normal  2.043979e-16  7.071068e-01 -7.071068e-01
   outer loop
     vertex  1.414214e+00  1.985858e+02  2.220446e-16
     vertex  9.858579e+01  2.000000e+02  1.414214e+00
     vertex  9.858579e+01  1.985858e+02 -1.110223e-16
   endloop
 endfacet
 facet normal  4.710277e-16  7.071068e-01 -7.071068e-01
   outer loop
     vertex  1.414214e+00  2.000000e+02  1.414214e+00
     vertex  1.414214e+00  1.985858e+02  2.220446e-16
     vertex  7.071068e-01  1.992929e+02  7.071068e-01
   endloop
 endfacet
 facet normal  1.583478e-16  7.071068e-01 -7.071068e-01
   outer loop
     vertex  1.414214e+00  2.000000e+02  1.414214e+00
     vertex  9.858579e+01  2.000000e+02  1.414214e+00
     vertex  1.414214e+00  1.985858e+02  2.220446e-16
   endloop
 endfacet
 facet normal -3.427617e-18  1.689224e-18 -1.000000e+00
   outer loop
     vertex  9.858579e+01  1.985858e+02 -1.110223e-16
     vertex  1.414214e+00  1.414214e+00 -1.110223e-16
     vertex  1.414214e+00  1.985858e+02  2.220446e-16
   endloop
 endfacet
 facet normal -3.427617e-18  1.689224e-18 -1.000000e+00
   outer loop
     vertex  9.858579e+01  1.985858e+02 -1.110223e-16
     vertex  9.858579e+01  1.414214e+00 -4.440892e-16
     vertex  1.414214e+00  1.414214e+00 -1.110223e-16
   endloop
 endfacet
 facet normal  7.071068e-01 -7.071068e-01  4.239250e-15
   outer loop
     vertex  1.000000e+02  1.414214e+00  4.858579e+01
     vertex  9.929289e+01  7.071068e-01  4.929289e+01
     vertex  9.858579e+01 -1.110223e-16  4.858579e+01
   endloop
 endfacet
 facet normal  7.071068e-01 -7.071068e-01 -4.992708e-18
   outer loop
     vertex  9.858579e+01  2.220446e-16  1.414214e+00
     vertex  1.000000e+02  1.414214e+00  4.858579e+01
     vertex  9.858579e+01 -1.110223e-16  4.858579e+01
   endloop
 endfacet
 facet normal  7.071068e-01 -7.071068e-01 -1.334579e-15
   outer loop
     vertex  1.000000e+02  1.414214e+00  1.414214e+00
     vertex  9.858579e+01  2.220446e-16  1.414214e+00
     vertex  9.929289e+01  7.071068e-01  7.071068e-01
   endloop
 endfacet
 facet normal  7.071068e-01 -7.071068e-01  0.000000e+00
   outer loop
     vertex  1.000000e+02  1.414214e+00  1.414214e+00
     vertex  1.000000e+02  1.414214e+00  4.858579e+01
     vertex  9.858579e+01  2.220446e-16  1.414214e+00
   endloop
 endfacet
 facet normal  7.071068e-01  0.000000e+00  7.071068e-01
   outer loop
     vertex  1.000000e+02  1.985858e+02  4.858579e+01
     vertex  9.929289e+01  1.992929e+02  4.929289e+01
     vertex  9.858579e+01  1.985858e+02  5.000000e+01
   endloop
 endfacet
 facet normal  7.071068e-01  1.413083e-14  7.071068e-01
   outer loop
     vertex  1.000000e+02  1.414214e+00  4.858579e+01
     vertex  9.858579e+01  1.414214e+00  5.000000e+01
     vertex  9.929289e+01  7.071068e-01  4.929289e+01
   endloop
 endfacet
 facet normal  7.071068e-01  1.531563e-16  7.071068e-01
   outer loop
     vertex  1.000000e+02  1.414214e+00  4.858579e+01
     vertex  9.858579e+01  1.985858e+02  5.000000e+01
     vertex  9.858579e+01  1.414214e+00  5.000000e+01
   endloop
 endfacet
 facet normal  7.071068e-01  1.528911e-16  7.071068e-01
   outer loop
     vertex  1.000000e+02  1.414214e+00  4.858579e+01
     vertex  1.000000e+02  1.985858e+02  4.858579e+01
     vertex  9.858579e+01  1.985858e+02  5.000000e+01
   endloop
 endfacet
 facet normal  7.071068e-01  7.457939e-15 -7.071068e-01
   outer loop
     vertex  9.858579e+01  1.985858e+02 -1.110223e-16
     vertex  9.929289e+01  1.992929e+02  7.071068e-01
     vertex  1.000000e+02  1.985858e+02  1.414214e+00
   endloop
 endfacet
 facet normal  7.071068e-01 -1.576689e-16 -7.071068e-01
   outer loop
     vertex  1.000000e+02  1.414214e+00  1.414214e+00
     vertex  9.858579e+01  1.985858e+02 -1.110223e-16
     vertex  1.000000e+02  1.985858e+02  1.414214e+00
   endloop
 endfacet
 facet normal  7.071068e-01  5.573828e-15 -7.071068e-01
   outer loop
     vertex  9.858579e+01  1.414214e+00 -4.440892e-16
     vertex  1.000000e+02  1.414214e+00  1.414214e+00
     vertex  9.929289e+01  7.071068e-01  7.071068e-01
   endloop
 endfacet
 facet normal  7.071068e-01 -1.516966e-16 -7.071068e-01
   outer loop
     vertex  9.858579e+01  1.414214e+00 -4.440892e-16
     vertex  9.858579e+01  1.985858e+02 -1.110223e-16
     vertex  1.000000e+02  1.414214e+00  1.414214e+00
   endloop
 endfacet
 facet normal  7.071068e-01  7.071068e-01 -4.262801e-14
   outer loop
     vertex  9.858579e+01  2.000000e+02  4.858579e+01
     vertex  9.929289e+01  1.992929e+02  4.929289e+01
     vertex  1.000000e+02  1.985858e+02  4.858579e+01
   endloop
 endfacet
 facet normal  7.071068e-01  7.071068e-01  7.112519e-14
   outer loop
     vertex  9.858579e+01  2.000000e+02  1.414214e+00
     vertex  1.000000e+02  1.985858e+02  1.414214e+00
     vertex  9.929289e+01  1.992929e+02  7.071068e-01
   endloop
 endfacet
 facet normal  7.071068e-01  7.071068e-01  0.000000e+00
   outer loop
     vertex  9.858579e+01  2.000000e+02  1.414214e+00
     vertex  1.000000e+02  1.985858e+02  4.858579e+01
     vertex  1.000000e+02  1.985858e+02  1.414214e+00
   endloop
 endfacet
 facet normal  7.071068e-01  7.071068e-01 -0.000000e+00
   outer loop
     vertex  9.858579e+01  2.000000e+02  1.414214e+00
     vertex  9.858579e+01  2.000000e+02  4.858579e+01
     vertex  1.000000e+02  1.985858e+02  4.858579e+01
   endloop
 endfacet
 facet normal  1.000000e+00 -0.000000e+00  0.000000e+00
   outer loop
     vertex  1.000000e+02  1.414214e+00  1.414214e+00
     vertex  1.000000e+02  1.985858e+02  1.414214e+00
     vertex  1.000000e+02  1.985858e+02  4.858579e+01
   endloop
 endfacet
 facet normal  1.000000e+00  0.000000e+00  0.000000e+00
   outer loop
     vertex  1.000000e+02  1.414214e+00  4.858579e+01
     vertex  1.000000e+02  1.414214e+00  1.414214e+00
     vertex  1.000000e+02  1.985858e+02  4.858579e+01
   endloop
 endfacet
endsolid
